# xmcd
#
# Track frame offsets:
# 150
# 13636
# 23699
# 41254
# 52976
# 66622
# 84833
# 99929
# 121469
# 131315
#
# Disc length: 1865 seconds
#
#
# Revision: 0
# Processed by: cddbd v1.5.2PL0 Copyright (c) Steve Scherf et al.
# Submitted via: FreeRIP 2.945 
#
DISCID=7107470a
DTITLE=Sal da Terra - Candiêro
DYEAR=1900
DGENRE=
TTITLE0=Raiou
TTITLE1=Candiêro
TTITLE2=Nosso Sinhô nos fez Candiêro
TTITLE3=Bem aventurado quem não viu e creu
TTITLE4=Projeto Radical Sertão
TTITLE5=Eta lugar bonito
TTITLE6=Chegue pra louvar
TTITLE7=Sal da Terra Brasis
TTITLE8=Ressureição
TTITLE9=Conversa de repentista crente
EXTD=
EXTT0=
EXTT1=
EXTT2=
EXTT3=
EXTT4=
EXTT5=
EXTT6=
EXTT7=
EXTT8=
EXTT9=
PLAYORDER=
